<?xml version="1.0" encoding="UTF-8" standalone="no"?>
<!-- Created with Inkscape (http://www.inkscape.org/) -->

<svg
   width="600mm"
   height="600mm"
   viewBox="0 0 600 600"
   version="1.1"
   id="svg1"
   xml:space="preserve"
   inkscape:version="1.3.2 (091e20e, 2023-11-25, custom)"
   sodipodi:docname="그리기.svg"
   xmlns:inkscape="http://www.inkscape.org/namespaces/inkscape"
   xmlns:sodipodi="http://sodipodi.sourceforge.net/DTD/sodipodi-0.dtd"
   xmlns="http://www.w3.org/2000/svg"
   xmlns:svg="http://www.w3.org/2000/svg"><sodipodi:namedview
     id="namedview1"
     pagecolor="#ffffff"
     bordercolor="#000000"
     borderopacity="0.25"
     inkscape:showpageshadow="2"
     inkscape:pageopacity="0.0"
     inkscape:pagecheckerboard="0"
     inkscape:deskcolor="#d1d1d1"
     inkscape:document-units="mm"
     inkscape:zoom="0.14135095"
     inkscape:cx="1184.9938"
     inkscape:cy="3031.4618"
     inkscape:window-width="2560"
     inkscape:window-height="1369"
     inkscape:window-x="1912"
     inkscape:window-y="-8"
     inkscape:window-maximized="1"
     inkscape:current-layer="layer1" /><defs
     id="defs1" /><g
     inkscape:label="Layer 1"
     inkscape:groupmode="layer"
     id="layer1"><path
       id="rect1"
       style="opacity:1;fill:#ffffff;stroke:#000000;stroke-width:4.5361;stroke-linecap:round;stroke-linejoin:round"
       inkscape:label="rect1"
       d="m 558.28252,180.25476 v 239.49042 c 0,76.02334 -61.20287,137.2263 -137.22621,137.2263 h -242.1126 c -76.02334,0 -137.226234,-61.20296 -137.226234,-137.2263 V 180.25476 c 0,-76.02334 61.202894,-137.226236 137.226234,-137.226236 h 242.1126 c 76.02334,0 137.22621,61.202896 137.22621,137.226236 z" /><path
       d="m 207.13905,256.15069 -80.27392,0.62895 0.51218,49.31695 90.64566,-0.99048 -0.51646,-13.66052 -10.43717,-0.11038 z"
       style="fill:#c7d8ff;fill-opacity:1;stroke:#000000;stroke-width:4.53609;stroke-linecap:round;stroke-linejoin:round;stroke-dasharray:none;stroke-opacity:1"
       id="path1-5"
       sodipodi:nodetypes="ccccccc"
       name="강당" /><path
       d="m 373.4772,190.61149 -62.93175,0.65552 -0.65557,100.07904 0.21874,14.20384 0.65552,91.12001 30.81036,-0.21873 1.09254,-180.27336 30.59187,-0.65552 z"
       style="fill:#caffc7;fill-opacity:1;stroke:#000000;stroke-width:4.53609;stroke-linecap:round;stroke-linejoin:round;stroke-dasharray:none;stroke-opacity:1"
       id="path1"
       sodipodi:nodetypes="ccccccccc"
       name="본관" /><path
       style="opacity:1;fill:#faffcc;fill-opacity:1;stroke:#000000;stroke-width:4.53609;stroke-linecap:round;stroke-linejoin:round;stroke-dasharray:none;stroke-opacity:1"
       d="m 268.63286,291.33723 -3.49623,-152.30368 h -17.044 l -19.22919,9.61462 10.70717,23.38088 2.18509,119.08964 -23.47457,0.26359 0.0937,28.14294 h 70.57979 l 0.43698,-14.42183 20.04856,-0.27318 -0.0544,-13.38392 z"
       id="path3"
       sodipodi:nodetypes="ccccccccccccc"
       name="별관" /><path
       style="opacity:1;fill:#ffd1d1;fill-opacity:1;stroke:#000000;stroke-width:4.53609;stroke-linecap:round;stroke-linejoin:round;stroke-dasharray:none;stroke-opacity:1"
       d="m 221.21548,175.74351 -12.45523,-16.82551 -33.65102,25.78456 -23.38092,31.68441 15.07739,12.23674 19.44768,-25.12904 z"
       id="path4"
       name="기숙사" /><path
       style="opacity:1;fill:#edd1ff;fill-opacity:1;stroke:#000000;stroke-width:4.53609;stroke-linecap:round;stroke-linejoin:round;stroke-dasharray:none;stroke-opacity:1"
       d="M 383.02917,132.51033 273.79202,91.859102 259.82466,129.80026 368.43643,170.65995 Z"
       id="path5"
       name="시청각실" /><path
       id="rect2"
       style="fill:#934401;stroke:#000000;stroke-width:4.53609;stroke-linecap:round;stroke-linejoin:round"
       d="m 493.77632,246.3141 v 120.87624 c 0,11.76171 -9.46881,21.2305 -21.23052,21.2305 h -70.14173 c -11.76171,0 -21.23052,-9.46879 -21.23052,-21.2305 V 246.3141 c 0,-11.7617 9.46881,-21.23051 21.23052,-21.23051 h 70.14173 c 11.76171,0 21.23052,9.46881 21.23052,21.23051 z" /><path
       id="rect2-5"
       style="fill:#387334;stroke:#000000;stroke-width:3.53816;stroke-linecap:round;stroke-linejoin:round"
       d="m 486.05305,246.73702 v 120.14952 c 0,8.16209 -6.57095,14.73296 -14.73301,14.73296 h -68.17891 c -8.16205,0 -14.733,-6.57087 -14.733,-14.73296 V 246.73702 c 0,-8.16206 6.57095,-14.73295 14.733,-14.73295 h 68.17891 c 8.16206,0 14.73301,6.57089 14.73301,14.73295 z" /><path
       id="rect5"
       style="fill:#d1fffc;stroke:#000000;stroke-width:3.53816;stroke-linecap:round;stroke-linejoin:round"
       d="m 370.52107,286.77653 v 39.19193 h -12.09113 v -39.19193 z" /><path
       id="rect6"
       style="fill:#7c7c7c;stroke:#000000;stroke-width:4.5361;stroke-linecap:round;stroke-linejoin:round"
       d="m 293.58844,357.82131 v 122.64425 c 0,11.75972 -9.46724,21.22693 -21.22694,21.22693 H 143.82091 c -11.75972,0 -21.22692,-9.46721 -21.22692,-21.22693 V 357.82131 c 0,-11.75967 9.4672,-21.22694 21.22692,-21.22694 H 272.3615 c 11.7597,0 21.22694,9.46727 21.22694,21.22694 z" /><path
       style="font-weight:bold;font-size:28.8173px;font-family:'NanumSquare Neo Bold';-inkscape-font-specification:'NanumSquare Neo Bold, Bold';text-align:center;text-anchor:middle;fill:#ffffff;stroke:#4d4d4d;stroke-width:5.2014;stroke-linecap:round;stroke-linejoin:round"
       d="m 209.92061,362.28325 q 19.75297,0 30.50091,9.29553 10.89318,9.29543 10.89318,26.28884 0,17.28385 -10.89318,26.57934 -10.74794,9.15026 -30.50091,9.15026 h -30.35567 v 46.33235 H 165.0407 V 362.28325 Z m -1.0167,58.38744 q 27.74131,0 27.74131,-22.80307 0,-22.65779 -27.74131,-22.65779 h -29.33897 v 45.46086 z"
       id="text8"
       aria-label="P" /></g></svg>
